<?xml version="1.0" standalone="no"?>
<!DOCTYPE svg PUBLIC "-//W3C//DTD SVG 20010904//EN"
 "http://www.w3.org/TR/2001/REC-SVG-20010904/DTD/svg10.dtd">
<svg version="1.0" xmlns="http://www.w3.org/2000/svg"
 width="600.000000pt" height="600.000000pt" viewBox="0 0 600.000000 600.000000"
 preserveAspectRatio="xMidYMid meet">
<metadata>
Created by potrace 1.11, written by Peter Selinger 2001-2013
</metadata>
<g transform="translate(0.000000,600.000000) scale(0.100000,-0.100000)"
fill="#000000" stroke="none">
<path d="M2861 5680 c-101 -43 -117 -88 -120 -331 l-1 -46 -47 -7 c-266 -36
-566 -149 -805 -305 -226 -147 -441 -362 -590 -588 -29 -43 -37 -50 -52 -41
-47 26 -92 -46 -53 -85 l20 -20 -25 -46 c-89 -158 -178 -444 -203 -651 -4 -30
-9 -68 -11 -85 -6 -47 -6 -304 0 -360 3 -27 8 -70 11 -95 4 -25 8 -52 9 -60 1
-8 8 -48 16 -88 l13 -72 -40 -34 c-23 -20 -53 -62 -72 -101 -121 -244 71 -527
340 -502 53 5 57 4 73 -24 36 -61 162 -208 259 -303 290 -280 655 -470 1042
-542 6 -1 18 -2 27 -3 10 -1 19 -13 23 -32 8 -36 57 -94 96 -115 82 -42 199 0
234 83 11 26 20 33 42 34 299 5 636 94 908 239 281 149 546 389 726 657 l50
73 47 -25 c56 -30 64 -31 86 -6 28 31 16 62 -34 96 l-46 30 21 40 c103 195
190 489 212 712 9 97 9 325 0 418 -21 219 -88 463 -178 648 l-28 58 22 13 c12
7 49 30 82 51 146 90 206 191 200 331 -4 83 -4 86 -33 145 -68 140 -245 223
-390 184 -54 -14 -100 -37 -254 -128 l-48 -28 -82 72 c-268 231 -661 409
-1003 455 -27 3 -53 8 -56 9 -3 2 -35 5 -72 6 -36 1 -69 5 -74 8 -4 3 -8 60
-9 127 0 107 -3 125 -23 157 -12 20 -37 46 -56 57 -39 24 -119 34 -154 20z
m401 -466 c215 -29 369 -76 574 -174 152 -72 297 -164 404 -257 14 -12 35 -30
48 -41 l23 -20 -143 -83 c-79 -45 -186 -108 -238 -139 -52 -31 -122 -72 -155
-91 -76 -43 -80 -45 -166 -96 -39 -24 -76 -43 -81 -43 -5 0 -108 57 -229 127
l-219 128 4 210 c3 115 5 274 5 353 l1 142 30 0 c16 0 80 -7 142 -16z m-529
-326 c-3 -183 -8 -336 -11 -340 -6 -5 -88 -54 -217 -128 -16 -9 -75 -43 -130
-75 -55 -32 -120 -70 -145 -84 -25 -13 -48 -30 -52 -35 -4 -6 -8 -8 -8 -4 0 5
-134 -68 -220 -122 -8 -5 -39 -23 -69 -40 l-53 -31 -82 47 c-44 26 -90 52
-101 58 -114 62 -295 173 -295 182 0 14 95 149 159 224 254 301 646 548 1010
636 9 2 36 8 61 14 25 6 70 15 100 19 30 5 56 9 57 10 1 0 -1 -149 -4 -331z
m-1068 -886 c83 -47 152 -87 154 -88 4 -4 4 -644 -1 -648 -14 -13 -711 -416
-714 -413 -6 6 -34 180 -41 252 -12 132 -8 333 11 476 24 177 106 428 194 596
l22 42 113 -66 c61 -36 180 -104 262 -151z m3159 -48 c49 -138 87 -297 104
-439 14 -121 6 -477 -13 -545 -2 -8 -6 -31 -9 -50 -9 -62 -45 -187 -85 -297
-39 -109 -106 -253 -117 -253 -3 0 -90 49 -192 109 -103 60 -209 121 -237 136
-27 16 -112 65 -189 110 l-140 82 -1 442 c0 284 4 446 10 451 9 8 339 201 600
353 66 38 134 77 150 87 l30 18 32 -67 c17 -36 43 -98 57 -137z m-939 -1234
c17 -12 44 -27 60 -35 17 -8 46 -24 65 -36 19 -12 141 -82 270 -156 129 -75
252 -146 272 -159 21 -13 41 -24 45 -24 5 0 19 -9 33 -19 l25 -20 -58 -85
c-214 -314 -533 -565 -902 -709 -82 -32 -212 -72 -268 -83 -12 -2 -45 -8 -73
-14 -67 -14 -109 -19 -230 -26 l-100 -6 2 124 c4 137 12 637 13 739 l1 66 172
99 c95 54 180 104 190 109 9 6 45 26 80 46 35 20 79 45 98 56 176 102 266 153
270 153 3 0 19 -9 35 -20z m-1460 -269 l260 -150 -4 -303 c-2 -167 -4 -374 -5
-460 l-1 -158 -23 0 c-13 0 -68 11 -122 25 -353 89 -648 256 -902 508 -87 86
-239 270 -238 287 1 3 98 61 216 130 119 69 282 164 362 211 136 80 149 85
172 73 14 -7 142 -80 285 -163z"/>
</g>
</svg>
